# xmcd
#
# Track frame offsets: 
#        150
#        13053
#        30041
#        35975
#        50753
#        64210
#        79869
#        93526
#        119063
#
# Disc length: 1906 seconds
#
# Revision: 0
# Processed by: cddbd v1.5.2PL0 Copyright (c) Steve Scherf et al.
# Submitted via: ExactAudioCopy v0.99pb4
#
DISCID=7a077009
DTITLE=Bruce Russell -  21st Century Field Hollers And Prison Songs
DYEAR=2006
DGENRE=Avantgarde
TTITLE0=Black Car Blues
TTITLE1=Kate's Blues #3 [Death Letter] 
TTITLE2=Nigerian Delta Oil Well Blues
TTITLE3=Wehowsky Loop Blues
TTITLE4=Coronation Holyoake Blues In Dub
TTITLE5=Dirty Water Dub 
TTITLE6=Hiroshima Tourist Blues In Dub
TTITLE7=Brakeman's Blues 
TTITLE8=Doctor's Blues For Phillip Samartzis
EXTD=
EXTT0=
EXTT1=
EXTT2=
EXTT3=
EXTT4=
EXTT5=
EXTT6=
EXTT7=
EXTT8=
PLAYORDER=
